<?xml version="1.0" encoding="UTF-8"?>
<svg version="1.1" viewBox="0 0 126.34 126.34" xml:space="preserve" xmlns="http://www.w3.org/2000/svg"><defs><clipPath id="clipPath18"><path d="m0 930.15h1455v-930.15h-1455z"/></clipPath></defs><circle cx="63.172" cy="63.172" r="63.172" fill="#fff"/><g transform="matrix(.11451 0 0 -.11451 -48.737 141.22)"><g clip-path="url(#clipPath18)"><g transform="translate(1007.8 485.41)"><path d="m0 0 0.19 0.01-0.239-0.059z" fill="#fff"/></g><g transform="translate(989.91 606.9)"><path d="m0 0c-120.38-88.113-319.26-165.83-401.27-16.353 101.58-147.63 288.84-51.789 383.19 15.328 11.258 20.766 35.481 56.189 58.128 83.403-21.431-12.232-35.435-17.224-47.2-20.352-33.357-27.617-79.742-59.463-129.57-80.549-70.781-26.309-142.78-37.815-200.92 14.712 93.064-72.642 227.72-10.864 311.31 61.516 21.901 42.293 36.343 66.912 55.874 94.556-19.285-14.124-35.591-22.954-49.632-27.078-56.636-64.048-130.13-112.05-212.18-116.85-68.095-3.984-99.204 54.339-99.204 91.228 0 23.243 8.255 43.433 23.108 59.039-10.991-4.786-20.93-11.622-32.414-20.113l-3.98 1.846c-0.488 7.168 0.532 12.725 2.417 17.139-1.806-1.905-3.457-3.809-5.01-5.606-3.169-3.662-5.908-6.826-8.891-8.799l-2.915 0.108c-2.388 1.855-3.74 4.258-4.024 7.148-0.464 4.658 2.012 9.844 5.205 14.58-7.841-5.469-15.952-12.129-22.314-17.607l-4.131 1.914c0.049 7.91 5.386 19.433 14.697 30.166-19.721-12.109-27.373-20.166-33.828-26.953-1.958-2.071-3.813-4.024-5.844-5.928l-4.18 1.406c-1.782 10.635 8.052 25.742 16.582 36.162-13.008-8.232-21.343-18.134-26.348-30.996l-4.8 0.508c-2.866 17.891 4.996 41.104 14.19 56.631-18.589-15.615-27.559-41.24-28.247-53.75l-4.59-1.231c-8.936 13.68-7.734 34.454-2.295 54.498-86.121-127.26-26.094-359.71 176.63-359.71 91.819 0 178.68 41.882 250.69 88.994 14.691 18.708 46.768 54.809 69.539 78.506-23.919-12.854-36.966-15.996-47.781-17.515" fill="#23261f"/></g><g transform="translate(1183.5 907.43)"><path d="m0 0 10.742-2.139-9.8-4.892c-26.594-13.303-50.908-40.786-63.191-69.214 19.109 17.314 39.422 32.187 64.891 45.464 33.962 17.705 119.36 30.21 178.53 3.613-8.892 7.122-18.718 12.478-28.967 16.675-90.076 46.516-157.82 26.763-182.11 17.947-5.855-2.124-11.387-4.539-16.778-7.09 15.391 2.822 31.031 2.737 46.685-0.364" fill="#344026"/></g><g transform="translate(1044.8 785.31)"><path d="m0 0-11.265-15.283c-22.846-31.004-37.514-54.517-59.37-96.011 6.316 5.84 12.32 11.709 17.881 17.554 52.097 54.736 83.994 95.649 117.13 128.19 9.045 31.318 33.752 63.877 62.344 81.914-21.854 2.373-43.631-1.626-64.605-11.543-47.195-33.774-78.047-85.954-123.42-142.03-2.327-2.876-4.741-5.679-7.132-8.499 14.984 5.994 32.601 17.095 53.597 33.855z" fill="#2c3324"/></g><g transform="translate(1239.7 847.85)"><path d="m0 0 12.124-2.539-11.494-4.609c-19.185-7.708-45.747-32.369-65.816-55.538 9.771 6.565 20.611 13.372 32.959 20.562 95.03 55.327 216.62-28.706 247.54-120.67-3.524 205.5-177.8 213.12-255.36 176.04-10.011-4.788-19.38-9.927-28.278-15.369 25.366 4.825 54.767 4.959 68.33 2.122" fill="#344026"/></g><g transform="translate(1055.8 710.9)"><path d="m0 0-11.899-13.184c-21.791-24.126-47.588-60.266-62.264-84.751 5.444 4.029 10.556 7.93 15.188 11.595 83.667 66.208 99.221 101.69 155.57 144.78 16.995 23.621 48.147 57.075 73.982 72.639-21.219 1.336-54.165-1.504-74.438-9.219-49.331-35.393-84.95-81.499-136.01-133.72-6.372-6.516-14.334-13.977-23.472-21.919 11.875 4.143 26.716 10.991 48.267 24.397z" fill="#2c3324"/></g><g transform="translate(1209.4 786)"><path d="m0 0c-15.853-5.701-30.916-13.997-45.428-23.853 35.667 7.618 80.918 3.731 101-15.7l4.82-4.668-6.495-1.66c-23.842-6.104-73.03-35.66-104.22-60.215 179.17 60.813 361.75-163.78 32.778-275.71 273.06 14.668 288.47 219.92 219.45 319.14-51.064 73.405-140.08 84.907-201.9 62.673" fill="#344026"/></g><g transform="translate(1145.8 748.91)"><path d="m0 0c-42.053-33.196-79.553-77.856-117.13-111-9.046-7.976-19.007-16.074-29.588-24.136 11.287 2.793 26.387 8.753 51.82 23.931l18.339 10.947-15.317-14.892c-17.767-17.259-51.006-53.809-71.685-78.426 71.036 48.352 126.09 99.568 154.79 115.41 25.747 25.029 84.956 63.081 117.46 74.521-24.847 17.015-77.196 16.595-108.68 3.643" fill="#2c3324"/></g><g transform="translate(922.34 756.02)"><path d="m0 0c-0.944 3.213-2.446 6.333-4.963 7.632-1.048 0.542-2.832 1.396-5.029 2.471-8.653 4.238-23.135 11.328-27.905 14.228l1.298 2.129c4.673-2.842 19.654-10.176 27.705-14.111 2.207-1.084 4.006-1.922 5.049-2.481 8.062-4.316 7.471-14.895 7.93-18.186 0.552-3.87 0.869-8.42 1.079-13.882 28.781 28.97 9.24 69.143-20.732 86.275-5.992-2.471-26.058-24.2-35.43-40.2 15.547-5.931 31.603-13.216 48.132-22.149 0.72-0.388 1.761-1.023 2.866-1.726" fill="#f37021"/></g><g transform="translate(931.35 781.81)"><path d="m0 0c0-3.041-2.466-5.507-5.507-5.507s-5.507 2.466-5.507 5.507c0 3.042 2.466 5.507 5.507 5.507s5.507-2.465 5.507-5.507" fill="#fff"/></g><g transform="translate(770.91 907.6)"><path d="m0 0c-36.182 4.995-72.246 3.169-111.88 22.544 5.066-14.751 5.674-26.777 31.446-32.749-40.45-1.69-74.317-13.486-101.66-32.192-0.098-0.181-0.295-0.44-0.427-0.65-6.707-4.634-13.13-9.565-19.048-14.985-6.936-6.353-13.399-13.15-19.248-20.445-7.075-19.008-11.509-41.513-6.143-57.251 3.721 16.895 15.952 44.493 40.908 57.1l2.964-3.926c-9.336-10.088-20.688-34.082-21.587-54.15 7.608 13.35 19.629 23.35 37.818 31.699l2.617-4.219c-5.923-4.785-21.86-23.632-25-36.738 0.356 0.371 0.713 0.742 1.074 1.123 8.745 9.209 19.629 20.664 57.788 40.723l2.466-4.346c-17.197-10.508-27.9-25.986-31.313-36.65 9.311 7.744 20.722 16.455 30.009 21.162l3.033-3.848-1.05-1.221c-4.087-4.736-12.588-14.58-11.963-20.859 0.083-0.889 0.351-1.66 0.815-2.344 1.934 1.67 3.975 4.024 6.26 6.66 6.524 7.54 14.644 16.924 28.789 21.075l2.124-4.463c-1.138-0.781-2.358-1.553-3.623-2.354-7.29-4.59-15.459-9.746-16.011-24.023 13.902 10.112 26.133 17.69 41.006 21.89 0.742 0.581 1.56 1.103 2.324 1.669 10.391 7.701 23.079 13.501 37.371 17.544l-0.137 0.264c-0.337 0.01-0.705-0.034-1.045-0.029 0.098 5e-3 0.223 0.044 0.32 0.044 0.244 0 0.486-5e-3 0.725-0.015 13.379 3.75 28.348 5.747 44.648 5.747 28.387 0 60.833-6.059 96.068-19.497 9.372 16.001 29.438 37.73 35.429 40.2-5.535 42.017-82.825 82.002-135.86 87.51" fill="#23261f"/></g><g transform="translate(1070.8 479.79)"><path d="m0 0c1.24 0.234 2.378 0.693 3.584 1.182 1.953 0.781 4.187 1.538 7.326 1.784-3.32 3.098-4.263 4.568-3.723 5.774 0.196 0.43 0.713 1.133 2.276 0.977 3.532-0.415 10.685-2.981 17.441-9.79-2.334 3.547-5.512 7.085-8.792 9.57-3.888 2.949-12.031 9.077-16.955 9.287-2.19 0.095-4.68-1.916-5.312-3.921-1.268-4.013-9.219-8.376-16.278-11.418 7.554-2.449 18.047-3.948 20.433-3.445" fill="#f37021"/></g><g transform="translate(1114.6 456.27)"><path d="m0 0c-0.027 0.186-0.063 0.376-0.107 0.568-0.074 0.33-0.169 0.662-0.287 0.999-0.114 0.337-0.251 0.679-0.41 1.026-0.314 0.695-0.705 1.408-1.172 2.143-0.929 1.47-2.145 3.02-3.598 4.639-1.094 1.211-2.322 2.466-3.672 3.74l-0.017-0.014c-0.151 0.168-0.332 0.297-0.488 0.461-1.17 1.086-2.407 2.185-3.745 3.281-7.461 5.535-16.397 7.219-17.661 7.244-3.57-0.039-5.86-0.84-8.052-1.719-1.255-0.508-2.559-1.025-4.033-1.318-3.953-0.735-20.145 1.963-27.256 5.903-9.617 4.453-18.823 11.582-31.196 24.507-16.675 16.97-22.93 31.606-26.234 43.403-5.703-3.955-11.452-7.832-17.233-11.604l-0.047-0.031c5.752-10.123 18.968-24.908 29.3-33.79l-1.631-1.894c-10.428 8.96-23.74 23.896-29.744 34.331-2.788-1.804-5.583-3.579-8.381-5.33 3.291-4.514 7.175-8.96 11.476-13.203 11.654-11.562 25.56-22.072 37.354-33.747 0.096-0.093 0.188-0.186 0.283-0.279 8e-3 -0.097 0.018-0.195 0.025-0.293 0.642-8.244-8.76-7.041-17.561-6.215-5.352 0.544-11.048 1.071-14.261 9e-3 -4.767-2.702-7.126-5.1-7.36-7.373-0.122-1.137 0.28-2.251 1.144-3.361 0.433-0.555 0.98-1.111 1.636-1.67 0.33-0.279 0.684-0.559 1.065-0.84s0.789-0.562 1.218-0.845c5.671-3.625 15.083-7.535 23.435-10.015 0.945-0.217 2.01 0.185 3.047 0.779-5.801 2.403-12.046 5.987-14.743 9.859-1.172 1.689-1.602 3.339-1.284 4.912l2.451-0.508c-0.181-0.869 0.122-1.875 0.888-2.969 2.525-3.636 9.161-7.224 14.973-9.49 1.136 1.214 1.912 2.522 1.57 3.191-1.494 3.052-1.215 5.152 0.865 6.321 2.172 1.228 6.276 1.35 12.172 0.193 3.02 0.977 4.986 3.259 6.104 7.114 0.871-0.281 1.74-0.561 2.604-0.844-3.608-12.886 1.649-19.906 11.763-24.94 2.078-0.356 3.848-0.529 5.57-0.654-1.844 3.828-3.003 7.348-1.851 9.539 0.391 0.742 1.226 1.66 2.988 1.826 5.681 0.645 11.314-2.598 14.658-7.632 0.787 0.591 1.555 1.221 2.266 1.936 0.371 3.928-2.161 6.992-6.245 10.027-0.02 0.015-5e-3 0.034-0.024 0.049-0.376 0.22-0.801 0.483-1.167 0.698-8.418 4.942-15.064 8.848-18.531 16.826l2.295 0.996c3.14-7.236 9.478-10.957 17.5-15.664 0.564-0.329 1.206-0.727 1.789-1.071 0.257-0.01 0.498 0.026 0.762-0.049 3.655-1.051 7.659-1.099 12.293-0.281 2.048 1.938 4.072 2.549 6.203 1.943 2.103-0.598 4.046-2.285 5.862-5.11 2.891-2.808 5.611-3.306 7.408-3.278 3.916 0.099 6.989 2.599 6.955 5.849-0.02 2.603-1.936 5.42-5.293 8.072 0.18 0.363 0.354 0.722 0.522 1.079 9.268-5.706 14.642-10.469 17.442-14.564 1.899-2.858 2.449-5.378 1.399-8.071 1.489 0.266 2.646 0.95 3.337 1.936 0.345 0.496 0.574 1.067 0.669 1.706 0.049 0.321 0.066 0.66 0.047 1.014-0.01 0.178-0.028 0.361-0.054 0.547" fill="#f37021"/></g><g transform="translate(869.25 786.02)"><path d="m0 0c-33.083 12.197-64.68 18.374-93.975 18.374-16.191 0-31.422-1.929-45.287-5.737l-0.086 5e-3c-7.39 0-15.993-3.052-25.954-6.582-1.36-0.484-2.801-0.967-4.202-1.456 14.397 19.629 20.96 19.751 27.402 19.742 1.714-0.039 3.492-0.039 5.411 0.293l0.283 2.373c-11.87 5.205-23.316-0.703-34.38-6.407-2.9-1.494-5.669-2.929-8.389-4.121 4.077 15.205 21.958 21.192 25.655 22.276l-0.206 2.441c-10.615 1.27-24.301-1.406-37.426-7.217 11.303 13.33 25.508 19.434 41.269 17.764 1.455-0.205 2.93-0.43 4.458-0.693l0.464 2.451c-1.465 0.303-2.969 0.537-4.58 0.723-36.519 5.019-51.807-1.758-70.43-13.956 13.672 21.221 40.005 23.467 40.284 23.487l-0.03 2.5c-20.512 0.967-36.65-1.338-51.982-15.332 6.719 15.058 18.071 23.476 34.555 25.693l-0.073 2.49c-28.535 2.129-51.279-11.816-59.59-26.787-1.679 4.824-1.503 9.551 0.523 14.102 4.238 9.502 15.386 15.781 21.836 17.685 9.951 2.823 20.078 2.979 27.739 2.705 2.437-0.166 4.893-0.322 7.383-0.459l0.161 2.5c-2.051 0.147-4.575 0.332-7.441 0.45-0.035 9e-3 -0.069 9e-3 -0.098 9e-3 -23.694 1.534-46.191 2.979-72.993-17.587 1.218 1.518 2.263 2.861 2.964 3.93 27.902 18.833 60.925 29.17 98.169 30.728l36.858 1.538-35.94 8.33c-16.631 3.852-21.116 9.927-24.307 18.696 26.775-10.923 51.968-13.232 76.426-15.478 8.713-0.801 17.721-1.626 26.675-2.857 52.353-5.439 122.52-43.691 130.86-80.107-8.537-6.323-23.384-23.159-32.007-36.509" fill="#fff"/></g><g transform="translate(839.52 833.34)"><path d="m0 0c-3.06-6.934-1.943-14.6 2.16-20.356 1.014-0.616 1.953-1.06 2.749-1.177 6.151-0.874 22.806 3.12 33.143 5.239 0.7 1.69 1.105 3.413 1.343 5.147-8.326 8.051-12.933 18.764-19.307 21.718-1.196 0.557-3.037 0.982-5.254 1.333-6.355-1.299-12.017-5.517-14.834-11.904" fill="#f37021"/></g><g transform="translate(870.09 821.12)"><path d="m0 0c-2.328-5.278-8.495-7.669-13.774-5.341-5.279 2.329-7.67 8.496-5.341 13.775 2.329 5.278 8.496 7.67 13.774 5.34 5.279-2.328 7.67-8.495 5.341-13.774"/></g><g transform="translate(883.71 818.18)"><path d="m0 0c-1.751 1.206-3.315 2.583-4.795 4.019-0.237-1.734-0.642-3.457-1.343-5.147 2.442 0.503 4.641 0.933 6.138 1.128"/></g><g transform="translate(839.52 833.34)"><path d="m0 0c2.817 6.387 8.479 10.605 14.834 11.904-12.119 1.909-37.036 1.211-48.73 2.867 11.308-7.916 27.358-29.839 36.056-35.127-4.103 5.756-5.22 13.422-2.16 20.356"/></g></g></g></svg>
